<svg width="228" height="64" viewBox="0 0 228 64" fill="none" xmlns="http://www.w3.org/2000/svg">
<path d="M11.2356 52.5454C11.2356 41.5256 18.6895 32.2568 28.8026 29.5621C34.088 22.8304 41.3343 20.2273 41.3343 20.2273C38.8149 23.0656 36.6254 25.6826 35.1562 28.7728C48.0787 28.9263 58.5072 39.5109 58.5072 52.5454H40.7804C36.718 49.7594 33.2095 44.1873 33.2095 37.8722C33.2095 34.2444 33.9334 31.3448 35.1562 28.7728C35.0614 28.7717 34.9665 28.7711 34.8714 28.7711C32.7734 28.7711 30.7393 29.0461 28.8026 29.5621C27.7742 30.872 26.8201 32.3381 26.008 33.9718C21.0223 44.0016 23.0535 52.5454 23.0535 52.5454H11.2356Z" fill="white"/>
<path d="M50.3446 7.13635L56.1578 12.9218L50.3446 18.7072L44.5314 12.9218L50.3446 7.13635Z" fill="white"/>
<path d="M88.7914 25.6465C93.9886 25.6465 98.6129 29.0676 99.9225 33.7105H102.214C100.741 27.7236 95.3391 23.4473 88.8323 23.4473C80.6886 23.4473 74.8776 29.6378 74.8776 38.1091C74.8776 46.4174 80.5249 52.7709 88.8323 52.7709C95.3391 52.7709 100.741 48.4945 102.214 42.5076H99.9225C98.6129 47.1098 93.9886 50.5716 88.8323 50.5716C81.9573 50.5716 77.0874 45.3178 77.0874 38.1091C77.0874 30.9004 81.9573 25.6465 88.7914 25.6465Z" fill="white"/>
<path d="M125.419 42.1818C125.419 36.1134 121.614 31.5927 116.58 31.5927C113.388 31.5927 110.728 33.3847 109.173 36.2764V23.8545H107.045V52.3636H109.173V42.1818C109.173 37.2945 112.16 33.792 116.253 33.792C120.304 33.792 123.21 37.376 123.21 42.1818V52.3636H125.419V42.1818Z" fill="white"/>
<path d="M147.673 52.3636H149.883V42.1818C149.883 36.1542 145.832 31.5927 139.775 31.5927C133.964 31.5927 129.708 35.9913 129.708 42.1818C129.708 48.1687 134.005 52.7709 139.53 52.7709C143.008 52.7709 145.995 50.8567 147.673 47.9244V52.3636ZM139.775 33.792C144.891 33.792 147.673 37.7425 147.673 42.1818C147.673 46.9062 144.277 50.5716 139.775 50.5716C135.274 50.5716 131.918 46.9062 131.918 42.1818C131.918 37.7425 134.823 33.792 139.775 33.792Z" fill="white"/>
<path d="M164.901 31.5927C158.067 31.5927 154.22 35.4211 154.22 42.1818V52.3636H156.389V42.1818C156.389 36.6836 159.336 33.792 164.901 33.792V31.5927Z" fill="white"/>
<path d="M177.074 50.6531C172.408 50.6531 170.485 48.2909 170.485 44.2182V34.1993H177.074V32H170.485V27.1942H168.275V44.2182C168.275 49.5534 171.181 52.7709 177.074 52.7709V50.6531Z" fill="white"/>
<path d="M197.896 45.6029C196.791 48.7389 193.967 50.7753 190.529 50.7753C186.192 50.7753 183.04 47.6393 182.754 42.9149H200.556C200.596 42.5891 200.637 42.1411 200.637 41.856C200.637 36.032 196.545 31.5927 190.611 31.5927C184.677 31.5927 180.462 36.032 180.462 42.1818C180.462 48.2909 184.677 52.7709 190.529 52.7709C195.236 52.7709 198.878 49.9607 200.228 45.6029H197.896ZM190.611 33.5476C195.113 33.5476 198.305 36.8465 198.468 41.4487H182.754C183.04 36.7244 186.151 33.5476 190.611 33.5476Z" fill="white"/>
<path d="M215.536 31.5927C208.701 31.5927 204.855 35.4211 204.855 42.1818V52.3636H207.024V42.1818C207.024 36.6836 209.97 33.792 215.536 33.792V31.5927Z" fill="white"/>
</svg>
